<svg width="11.205994" height="20.773926" viewBox="0 0 11.206 20.7739" fill="none" xmlns="http://www.w3.org/2000/svg" xmlns:xlink="http://www.w3.org/1999/xlink">
	<desc>
			Created with Pixso.
	</desc>
	<defs/>
	<path id="Icon 11" d="M3.12 11.7261C3.04199 11.7261 1.32599 11.7261 0.546021 11.7261C0.130005 11.7261 0 11.5701 0 11.1799C0 10.1399 0 9.07397 0 8.03394C0 7.61792 0.156006 7.48804 0.546021 7.48804L3.12 7.48804C3.12 7.40991 3.12 5.9021 3.12 5.19995C3.12 4.15991 3.302 3.17212 3.82202 2.26196C4.36798 1.32593 5.14801 0.701904 6.13599 0.337891C6.78601 0.104004 7.43597 0 8.138 0L10.686 0C11.05 0 11.206 0.156006 11.206 0.52002L11.206 3.48389C11.206 3.8479 11.05 4.00391 10.686 4.00391C9.98401 4.00391 9.28198 4.00391 8.58002 4.03003C7.87799 4.03003 7.51398 4.36792 7.51398 5.09595C7.48798 5.87598 7.51398 6.62988 7.51398 7.43604L10.53 7.43604C10.946 7.43604 11.102 7.59204 11.102 8.00806L11.102 11.1541C11.102 11.5701 10.972 11.7 10.53 11.7C9.59399 11.7 7.59198 11.7 7.51398 11.7L7.51398 20.176C7.51398 20.6179 7.38397 20.7739 6.91602 20.7739C5.82397 20.7739 4.758 20.7739 3.66602 20.7739C3.276 20.7739 3.12 20.6179 3.12 20.228C3.12 17.498 3.12 11.804 3.12 11.7261Z" fill="#000000" fill-opacity="1.000000" fill-rule="nonzero"/>
</svg>
