<svg width="18.923096" height="15.375000" viewBox="0 0 18.9231 15.375" fill="none" xmlns="http://www.w3.org/2000/svg" xmlns:xlink="http://www.w3.org/1999/xlink">
	<desc>
			Created with Pixso.
	</desc>
	<defs/>
	<path id="Vector" d="M18.9231 1.82007C18.2194 2.12891 17.4695 2.3335 16.6878 2.43286C17.492 1.95264 18.1058 1.198 18.3944 0.288574C17.6446 0.735596 16.8167 1.05151 15.9344 1.22754C15.2224 0.469482 14.2077 0 13.1007 0C10.9529 0 9.22382 1.74341 9.22382 3.88037C9.22382 4.18799 9.24982 4.48364 9.31372 4.76514C6.0885 4.60767 3.23468 3.06201 1.3175 0.707275C0.982788 1.28784 0.786499 1.95264 0.786499 2.66821C0.786499 4.01172 1.47839 5.20264 2.50964 5.89209C1.88641 5.88037 1.27496 5.69946 0.756897 5.41431C0.756897 5.42627 0.756897 5.44165 0.756897 5.45703C0.756897 7.34204 2.10162 8.90796 3.86505 9.2688C3.54926 9.35498 3.20508 9.39648 2.8479 9.39648C2.59955 9.39648 2.34882 9.38232 2.11346 9.33032C2.61609 10.8667 4.04242 11.9961 5.7384 12.0327C4.41852 13.0652 2.74268 13.6873 0.928406 13.6873C0.610291 13.6873 0.305115 13.6731 0 13.634C1.71844 14.7422 3.75507 15.375 5.95129 15.375C13.09 15.375 16.9929 9.46143 16.9929 4.33569C16.9929 4.16431 16.987 3.99878 16.9788 3.83423C17.7487 3.28784 18.3956 2.60547 18.9231 1.82007Z" fill="#000000" fill-opacity="1.000000" fill-rule="nonzero"/>
</svg>
