<svg width="19.000000" height="18.000000" viewBox="0 0 19 18" fill="none" xmlns="http://www.w3.org/2000/svg" xmlns:xlink="http://www.w3.org/1999/xlink">
	<desc>
			Created with Pixso.
	</desc>
	<defs>
		<clipPath id="clip2_34">
			<rect id="linkedin-logo" width="19.000000" height="18.000000" fill="white" fill-opacity="0"/>
		</clipPath>
	</defs>
	<rect id="linkedin-logo" width="19.000000" height="18.000000" fill="#FFFFFF" fill-opacity="0"/>
	<g clip-path="url(#clip2_34)">
		<path id="Vector" d="M17.1 0L1.90002 0C0.85498 0 0 0.810059 0 1.80005L0 16.2C0 17.1899 0.85498 18 1.90002 18L17.1 18C18.145 18 19 17.1899 19 16.2L19 1.80005C19 0.810059 18.145 0 17.1 0ZM5.70001 15.3L2.84998 15.3L2.84998 7.19995L5.70001 7.19995L5.70001 15.3ZM4.27502 5.66992C3.32501 5.66992 2.565 4.94995 2.565 4.05005C2.565 3.1499 3.32501 2.42993 4.27502 2.42993C5.22498 2.42993 5.98499 3.1499 5.98499 4.05005C5.98499 4.94995 5.22498 5.66992 4.27502 5.66992ZM16.15 15.3L13.3 15.3L13.3 10.53C13.3 9.81006 12.635 9.17993 11.875 9.17993C11.115 9.17993 10.45 9.81006 10.45 10.53L10.45 15.3L7.59998 15.3L7.59998 7.19995L10.45 7.19995L10.45 8.28003C10.925 7.56006 11.97 7.02002 12.825 7.02002C14.63 7.02002 16.15 8.45996 16.15 10.1699L16.15 15.3Z" fill="#000000" fill-opacity="1.000000" fill-rule="nonzero"/>
	</g>
</svg>
